<svg width="18" height="17" viewBox="0 0 18 17" fill="none" xmlns="http://www.w3.org/2000/svg">
<g clip-path="url(#clip0_423_64)">
<path d="M13.5156 0H4.48438C2.28387 0 0.5 1.78387 0.5 3.98438V13.0156C0.5 15.2161 2.28387 17 4.48438 17H13.5156C15.7161 17 17.5 15.2161 17.5 13.0156V3.98438C17.5 1.78387 15.7161 0 13.5156 0Z" fill="#5865F2"/>
<mask id="mask0_423_64" style="mask-type:luminance" maskUnits="userSpaceOnUse" x="2" y="3" width="14" height="11">
<path d="M2.35938 3.38672H15.6406V13.675H2.35938V3.38672Z" fill="white"/>
</mask>
<g mask="url(#mask0_423_64)">
<path d="M13.6024 4.30293C12.7414 3.90772 11.8327 3.62587 10.8991 3.46441C10.8906 3.46287 10.8819 3.46402 10.8741 3.46771C10.8663 3.47141 10.8599 3.47745 10.8557 3.485C10.7389 3.69259 10.6096 3.96352 10.5191 4.17642C9.49821 4.02356 8.48265 4.02356 7.48278 4.17642C7.3922 3.95874 7.25819 3.69259 7.14092 3.485C7.1366 3.47758 7.13013 3.47163 7.12236 3.46796C7.1146 3.46428 7.1059 3.46305 7.09742 3.46441C6.16376 3.6255 5.25502 3.90737 4.39409 4.30293C4.38676 4.30612 4.38056 4.31144 4.37629 4.3182C2.65451 6.89051 2.18289 9.39961 2.41425 11.8776C2.41566 11.8899 2.42187 11.901 2.43152 11.9087C3.56746 12.743 4.66788 13.2494 5.74785 13.5851C5.75625 13.5876 5.76521 13.5875 5.77354 13.5848C5.78186 13.582 5.78916 13.5768 5.79446 13.5699C6.04993 13.221 6.27764 12.8531 6.47294 12.4663C6.47563 12.461 6.47716 12.4552 6.47744 12.4493C6.47772 12.4433 6.47674 12.4374 6.47456 12.4319C6.47239 12.4264 6.46906 12.4214 6.46481 12.4172C6.46056 12.4131 6.45547 12.4099 6.44989 12.4078C6.08864 12.2707 5.74473 12.1037 5.41389 11.914C5.40786 11.9105 5.4028 11.9055 5.39916 11.8995C5.39551 11.8936 5.39338 11.8868 5.39297 11.8798C5.39256 11.8728 5.39387 11.8658 5.39679 11.8595C5.3997 11.8531 5.40414 11.8476 5.40971 11.8434C5.4795 11.7912 5.5481 11.7374 5.61543 11.6821C5.62133 11.6773 5.62847 11.6741 5.63605 11.6731C5.64363 11.6721 5.65134 11.6732 5.65833 11.6763C7.83194 12.6687 10.185 12.6687 12.333 11.6763C12.34 11.673 12.3478 11.6717 12.3555 11.6727C12.3632 11.6736 12.3704 11.6767 12.3765 11.6816C12.4439 11.7372 12.5126 11.7911 12.5827 11.8434C12.5883 11.8476 12.5928 11.8531 12.5957 11.8594C12.5987 11.8657 12.6001 11.8727 12.5997 11.8797C12.5993 11.8866 12.5973 11.8934 12.5937 11.8994C12.5901 11.9054 12.5851 11.9104 12.5791 11.914C12.248 12.1073 11.9013 12.2723 11.5425 12.4073C11.537 12.4094 11.5319 12.4127 11.5277 12.4169C11.5235 12.4212 11.5202 12.4262 11.5181 12.4318C11.516 12.4373 11.5151 12.4433 11.5154 12.4492C11.5157 12.4552 11.5173 12.461 11.52 12.4663C11.7187 12.8501 11.9452 13.2187 12.1979 13.5693C12.2031 13.5765 12.2103 13.5818 12.2187 13.5847C12.227 13.5875 12.2361 13.5877 12.2445 13.5851C13.3297 13.2494 14.4301 12.743 15.5661 11.9087C15.571 11.9051 15.575 11.9005 15.578 11.8953C15.581 11.89 15.5828 11.8842 15.5834 11.8782C15.8603 9.01332 15.1196 6.52475 13.6197 4.31873C13.6161 4.31154 13.6099 4.30592 13.6024 4.30293ZM6.79753 10.3688C6.1431 10.3688 5.60388 9.76803 5.60388 9.03019C5.60388 8.29235 6.13267 7.69157 6.79753 7.69157C7.46757 7.69157 8.00154 8.29766 7.99105 9.03019C7.99105 9.76803 7.46232 10.3688 6.79753 10.3688ZM11.2106 10.3688C10.5562 10.3688 10.017 9.76803 10.017 9.03019C10.017 8.29235 10.5458 7.69157 11.2106 7.69157C11.8807 7.69157 12.4146 8.29766 12.4042 9.03019C12.4042 9.76803 11.8807 10.3688 11.2106 10.3688Z" fill="white"/>
</g>
</g>
<defs>
<clipPath id="clip0_423_64">
<rect width="17" height="17" fill="white" transform="translate(0.5)"/>
</clipPath>
</defs>
</svg>
