<svg width="15" height="15" viewBox="0 0 15 15" fill="none" xmlns="http://www.w3.org/2000/svg">
<g clip-path="url(#clip0_423_272)">
<path d="M7.50245 0C4.37127 0 3.45551 0.00323145 3.27751 0.018C2.63494 0.0714274 2.2351 0.17263 1.79948 0.389565C1.46378 0.556316 1.19902 0.749599 0.937719 1.02055C0.46185 1.51466 0.173442 2.12256 0.0690364 2.84516C0.0182792 3.19596 0.00351055 3.2675 0.000511496 5.05935C-0.00063937 5.65663 0.000511496 6.4427 0.000511496 7.49705C0.000511496 10.6265 0.00396975 11.5416 0.0189707 11.7193C0.0708844 12.3448 0.16894 12.7383 0.376595 13.1687C0.773446 13.9926 1.53137 14.6111 2.42429 14.8419C2.73346 14.9215 3.07494 14.9654 3.51331 14.9861C3.69905 14.9942 5.59215 15 7.48641 15C9.38067 15 11.2749 14.9977 11.456 14.9885C11.9636 14.9646 12.2584 14.925 12.5843 14.8408C13.483 14.6088 14.2271 13.9995 14.632 13.1641C14.8356 12.744 14.9389 12.3355 14.9856 11.7428C14.9957 11.6135 15 9.55292 15 7.4951C15 5.43692 14.9954 3.38013 14.9852 3.25089C14.9379 2.64853 14.8347 2.2435 14.6245 1.81538C14.452 1.46493 14.2605 1.20321 13.9825 0.93562C13.4863 0.461577 12.8795 0.173089 12.1564 0.0687742C11.8061 0.0181134 11.7363 0.00311244 9.94353 0H7.50245Z" fill="url(#paint0_radial_423_272)"/>
<path d="M7.50245 0C4.37127 0 3.45551 0.00323145 3.27751 0.018C2.63494 0.0714274 2.2351 0.17263 1.79948 0.389565C1.46378 0.556316 1.19902 0.749599 0.937719 1.02055C0.46185 1.51466 0.173442 2.12256 0.0690364 2.84516C0.0182792 3.19596 0.00351055 3.2675 0.000511496 5.05935C-0.00063937 5.65663 0.000511496 6.4427 0.000511496 7.49705C0.000511496 10.6265 0.00396975 11.5416 0.0189707 11.7193C0.0708844 12.3448 0.16894 12.7383 0.376595 13.1687C0.773446 13.9926 1.53137 14.6111 2.42429 14.8419C2.73346 14.9215 3.07494 14.9654 3.51331 14.9861C3.69905 14.9942 5.59215 15 7.48641 15C9.38067 15 11.2749 14.9977 11.456 14.9885C11.9636 14.9646 12.2584 14.925 12.5843 14.8408C13.483 14.6088 14.2271 13.9995 14.632 13.1641C14.8356 12.744 14.9389 12.3355 14.9856 11.7428C14.9957 11.6135 15 9.55292 15 7.4951C15 5.43692 14.9954 3.38013 14.9852 3.25089C14.9379 2.64853 14.8347 2.2435 14.6245 1.81538C14.452 1.46493 14.2605 1.20321 13.9825 0.93562C13.4863 0.461577 12.8795 0.173089 12.1564 0.0687742C11.8061 0.0181134 11.7363 0.00311244 9.94353 0H7.50245Z" fill="url(#paint1_radial_423_272)"/>
<path d="M7.50245 0C4.37127 0 3.45551 0.00323145 3.27751 0.018C2.63494 0.0714274 2.2351 0.17263 1.79948 0.389565C1.46378 0.556316 1.19902 0.749599 0.937719 1.02055C0.46185 1.51466 0.173442 2.12256 0.0690364 2.84516C0.0182792 3.19596 0.00351055 3.2675 0.000511496 5.05935C-0.00063937 5.65663 0.000511496 6.4427 0.000511496 7.49705C0.000511496 10.6265 0.00396975 11.5416 0.0189707 11.7193C0.0708844 12.3448 0.16894 12.7383 0.376595 13.1687C0.773446 13.9926 1.53137 14.6111 2.42429 14.8419C2.73346 14.9215 3.07494 14.9654 3.51331 14.9861C3.69905 14.9942 5.59215 15 7.48641 15C9.38067 15 11.2749 14.9977 11.456 14.9885C11.9636 14.9646 12.2584 14.925 12.5843 14.8408C13.483 14.6088 14.2271 13.9995 14.632 13.1641C14.8356 12.744 14.9389 12.3355 14.9856 11.7428C14.9957 11.6135 15 9.55292 15 7.4951C15 5.43692 14.9954 3.38013 14.9852 3.25089C14.9379 2.64853 14.8347 2.2435 14.6245 1.81538C14.452 1.46493 14.2605 1.20321 13.9825 0.93562C13.4863 0.461577 12.8795 0.173089 12.1564 0.0687742C11.8061 0.0181134 11.7363 0.00311244 9.94353 0H7.50245Z" fill="url(#paint2_radial_423_272)"/>
<path d="M7.50245 0C4.37127 0 3.45551 0.00323145 3.27751 0.018C2.63494 0.0714274 2.2351 0.17263 1.79948 0.389565C1.46378 0.556316 1.19902 0.749599 0.937719 1.02055C0.46185 1.51466 0.173442 2.12256 0.0690364 2.84516C0.0182792 3.19596 0.00351055 3.2675 0.000511496 5.05935C-0.00063937 5.65663 0.000511496 6.4427 0.000511496 7.49705C0.000511496 10.6265 0.00396975 11.5416 0.0189707 11.7193C0.0708844 12.3448 0.16894 12.7383 0.376595 13.1687C0.773446 13.9926 1.53137 14.6111 2.42429 14.8419C2.73346 14.9215 3.07494 14.9654 3.51331 14.9861C3.69905 14.9942 5.59215 15 7.48641 15C9.38067 15 11.2749 14.9977 11.456 14.9885C11.9636 14.9646 12.2584 14.925 12.5843 14.8408C13.483 14.6088 14.2271 13.9995 14.632 13.1641C14.8356 12.744 14.9389 12.3355 14.9856 11.7428C14.9957 11.6135 15 9.55292 15 7.4951C15 5.43692 14.9954 3.38013 14.9852 3.25089C14.9379 2.64853 14.8347 2.2435 14.6245 1.81538C14.452 1.46493 14.2605 1.20321 13.9825 0.93562C13.4863 0.461577 12.8795 0.173089 12.1564 0.0687742C11.8061 0.0181134 11.7363 0.00311244 9.94353 0H7.50245Z" fill="url(#paint3_radial_423_272)"/>
<path d="M7.50336 1.92603C5.98871 1.92603 5.79862 1.93264 5.20373 1.9597C4.61 1.98686 4.20473 2.08079 3.85011 2.21861C3.48331 2.36095 3.17215 2.55136 2.86216 2.86124C2.55193 3.17101 2.36138 3.48193 2.21846 3.84835C2.0802 4.20282 1.98608 4.6079 1.95936 5.20096C1.93275 5.79541 1.92578 5.98547 1.92578 7.499C1.92578 9.01253 1.93252 9.20189 1.95947 9.79633C1.98678 10.3896 2.08078 10.7946 2.21858 11.1489C2.36114 11.5155 2.55169 11.8264 2.8618 12.1362C3.17169 12.4462 3.48284 12.637 3.84942 12.7794C4.20426 12.9172 4.60965 13.0111 5.20326 13.0383C5.79816 13.0653 5.98812 13.072 7.50266 13.072C9.01743 13.072 9.20693 13.0654 9.80182 13.0383C10.3956 13.0111 10.8013 12.9172 11.1561 12.7794C11.5228 12.637 11.8335 12.4462 12.1434 12.1362C12.4536 11.8264 12.6442 11.5155 12.7871 11.1491C12.9242 10.7946 13.0183 10.3895 13.0462 9.79645C13.0729 9.20201 13.0799 9.01252 13.0799 7.499C13.0799 5.98547 13.0729 5.79553 13.0462 5.20107C13.0183 4.60778 12.9242 4.20282 12.7871 3.84847C12.6442 3.48193 12.4536 3.171 12.1434 2.86124C11.8332 2.55124 11.5229 2.36083 11.1558 2.21861C10.8002 2.08079 10.3947 1.98686 9.80101 1.9597C9.20612 1.93264 9.01673 1.92603 7.50162 1.92603H7.50336ZM7.00304 2.93032C7.15154 2.93009 7.31722 2.93032 7.50336 2.93032C8.99245 2.93032 9.16894 2.93566 9.75697 2.96237C10.3007 2.98721 10.5959 3.078 10.7925 3.15428C11.0527 3.25529 11.2383 3.37604 11.4334 3.5711C11.6286 3.76615 11.7494 3.95192 11.8507 4.21199C11.9271 4.4082 12.018 4.70311 12.0428 5.24647C12.0695 5.83395 12.0753 6.01043 12.0753 7.49772C12.0753 8.985 12.0695 9.16149 12.0428 9.74897C12.0179 10.2923 11.9271 10.5872 11.8507 10.7835C11.7496 11.0435 11.6286 11.2287 11.4334 11.4236C11.2382 11.6187 11.0528 11.7394 10.7925 11.8405C10.5961 11.9171 10.3007 12.0076 9.75697 12.0325C9.16906 12.0592 8.99245 12.065 7.50336 12.065C6.01415 12.065 5.83766 12.0592 5.24974 12.0325C4.70597 12.0074 4.41085 11.9166 4.21414 11.8403C3.95387 11.7393 3.76797 11.6186 3.57277 11.4235C3.37757 11.2285 3.25674 11.0432 3.15542 10.783C3.07908 10.5868 2.9881 10.2919 2.96336 9.7485C2.93663 9.16102 2.93129 8.98454 2.93129 7.49633C2.93129 6.00811 2.93663 5.83256 2.96336 5.24508C2.98822 4.70171 3.07908 4.40681 3.15542 4.21036C3.2565 3.95029 3.37757 3.76453 3.57277 3.56947C3.76797 3.37442 3.95387 3.25367 4.21414 3.15243C4.41073 3.0758 4.70597 2.98524 5.24974 2.96027C5.76423 2.93705 5.96361 2.93009 7.00305 2.92892L7.00304 2.93032ZM10.4804 3.85567C10.1109 3.85567 9.81111 4.15487 9.81111 4.52419C9.81111 4.8934 10.1109 5.19295 10.4804 5.19295C10.8499 5.19295 11.1496 4.8934 11.1496 4.52419C11.1496 4.15498 10.8499 3.85544 10.4804 3.85544L10.4804 3.85567ZM7.50336 4.63704C5.92166 4.63704 4.63928 5.91848 4.63928 7.499C4.63928 9.07952 5.92166 10.3604 7.50336 10.3604C9.08505 10.3604 10.367 9.07952 10.367 7.499C10.367 5.91848 9.08494 4.63704 7.50324 4.63704H7.50336ZM7.50336 5.64134C8.53001 5.64134 9.3624 6.47299 9.3624 7.499C9.3624 8.52489 8.53001 9.35665 7.50336 9.35665C6.47659 9.35665 5.64432 8.52489 5.64432 7.499C5.64432 6.47299 6.47659 5.64134 7.50336 5.64134Z" fill="white"/>
</g>
<defs>
<radialGradient id="paint0_radial_423_272" cx="0" cy="0" r="1" gradientUnits="userSpaceOnUse" gradientTransform="translate(14.5157 7.03069) rotate(164.25) scale(9.58415 6.90492)">
<stop stop-color="#FF005F"/>
<stop offset="1" stop-color="#FC01D8"/>
</radialGradient>
<radialGradient id="paint1_radial_423_272" cx="0" cy="0" r="1" gradientUnits="userSpaceOnUse" gradientTransform="translate(3.98426 16.1553) rotate(-90) scale(11.9733 12.7034)">
<stop stop-color="#FFCC00"/>
<stop offset="0.1242" stop-color="#FFCC00"/>
<stop offset="0.5672" stop-color="#FE4A05"/>
<stop offset="0.6942" stop-color="#FF0F3F"/>
<stop offset="1" stop-color="#FE0657" stop-opacity="0"/>
</radialGradient>
<radialGradient id="paint2_radial_423_272" cx="0" cy="0" r="1" gradientUnits="userSpaceOnUse" gradientTransform="translate(7.87904 14.7885) rotate(-59.8703) scale(4.95106 6.44572)">
<stop stop-color="#FFCC00"/>
<stop offset="1" stop-color="#FFCC00" stop-opacity="0"/>
</radialGradient>
<radialGradient id="paint3_radial_423_272" cx="0" cy="0" r="1" gradientUnits="userSpaceOnUse" gradientTransform="translate(2.03518 0.610796) rotate(164.274) scale(9.47784 3.22909)">
<stop stop-color="#780CFF"/>
<stop offset="1" stop-color="#820BFF" stop-opacity="0"/>
</radialGradient>
<clipPath id="clip0_423_272">
<rect width="15" height="15" fill="white"/>
</clipPath>
</defs>
</svg>
